<?xml version="1.0" encoding="UTF-8" standalone="no"?>
<!DOCTYPE svg PUBLIC "-//W3C//DTD SVG 1.1//EN" "http://www.w3.org/Graphics/SVG/1.1/DTD/svg11.dtd">
<svg width="100%" height="100%" viewBox="0 0 1024 315" version="1.1" xmlns="http://www.w3.org/2000/svg" xmlns:xlink="http://www.w3.org/1999/xlink" xml:space="preserve" xmlns:serif="http://www.serif.com/" style="fill-rule:evenodd;clip-rule:evenodd;stroke-linejoin:round;stroke-miterlimit:2;">
    <g id="_-077583ff" serif:id="#077583ff">
        <path d="M547.51,5.5C551.04,0.22 559.11,-1.28 564.09,2.84C567.92,5.57 569.19,10.46 569.18,14.94C569.22,55.32 569.15,95.7 569.21,136.08C568.73,139.89 572.85,143.8 576.55,141.89C579.71,140.71 580.17,136.96 580.18,134.04C580.18,116 580.17,97.95 580.16,79.91C580.08,77.05 580.73,74.05 582.78,71.93C586.4,67.44 593.85,67.06 597.96,71.08C600.96,73.84 601.64,78.13 601.58,82.02C601.54,99.38 601.56,116.73 601.57,134.08C601.58,139.84 600.92,145.72 598.55,151.02C594.53,160.49 585.97,168.01 575.82,170.1C572.71,170.61 569,172.29 569.26,176.03C569.08,197.61 569.24,219.19 569.19,240.77C653.45,240.78 737.72,240.76 821.98,240.78C828.64,241.19 835.3,241.41 841.98,241.28C891.98,241.29 941.99,241.25 992,241.29C1010.63,242.93 1025.28,261.46 1023.76,279.93C1023.07,297.61 1007.9,313.84 989.99,314.39C907.99,314.37 825.99,314.39 743.99,314.38C735.4,314.43 726.79,314.11 718.24,315L37.44,315C26.51,314.65 15.63,309.8 8.81,301.13C0.81,291.48 -1.5,277.66 2.5,265.83C7.18,251.28 21.71,240.64 37.01,240.64C153.01,240.67 269.02,240.65 385.02,240.66C438.44,240.8 491.86,240.84 545.28,240.71C545.23,208.43 545.33,176.15 545.23,143.87C545.46,140.27 542.52,137.61 539.1,137.29C528.52,135.26 519.54,127.45 515.5,117.54C512.55,110.78 512.73,103.25 512.81,96.02C512.86,79.66 512.76,63.3 512.85,46.95C512.49,41.19 517.02,35.45 522.94,35.29C529.24,34.78 534.55,40.84 534.27,46.95C534.34,65.31 534.27,83.67 534.27,102.02C534.18,104.65 534.88,107.84 537.64,108.87C540.55,110.52 544.31,108.13 544.91,105.05C545.53,102.07 545.24,99 545.29,95.99C545.22,68.98 545.31,41.97 545.24,14.96C545.22,11.7 545.39,8.18 547.51,5.5M113.88,262.96C109.3,267.74 107.82,274.91 109.24,281.27C110.69,288.4 116.63,294.44 123.81,295.77C130.47,297.18 138.35,295.15 142.4,289.4C141.13,288.34 139.9,287.22 138.56,286.25C136.23,287.34 134.26,289.13 131.76,289.85C126.76,291.46 120.78,289.58 117.8,285.2C112.64,278.29 115.11,266.52 123.62,263.56C128.56,261.41 133.95,263.68 137.95,266.73C139.28,265.39 140.61,264.06 141.93,262.73C134.56,255.15 121,254.94 113.88,262.96M148.32,270.51C149.85,275.89 155.54,278.02 160.26,279.8C162.79,280.88 166.46,281.77 166.83,285.04C167.38,288.34 163.82,290.16 161.05,290.34C156.87,290.75 153.39,287.79 150.84,284.84C149.31,286.22 147.61,287.39 146.06,288.76C149.05,292.17 152.71,295.35 157.38,296C162.53,296.73 168.8,295.53 171.8,290.85C174.58,286.68 173.42,280.56 169.46,277.56C164.83,274.09 158.64,273.54 154.27,269.63C154.25,267.09 154.79,263.66 157.93,263.36C161.93,262.35 165.63,264.23 168.41,266.97C169.8,265.43 171.16,263.86 172.53,262.31C168.46,258.91 163.33,255.96 157.8,257.19C151.71,257.9 146.18,264.3 148.32,270.51M194.22,257.18C190.44,257.75 186.78,259.39 183.99,262.03C175.91,269.63 176.04,284.24 184.47,291.53C191.69,298.07 203.99,297.69 210.8,290.73C218.08,283.41 218.34,270.35 211.16,262.89C206.98,258.23 200.34,256.21 194.22,257.18M419.68,257.85C414.52,259.41 410.24,263.41 408.16,268.36C404.92,275.52 406.28,284.58 411.74,290.29C418.6,297.89 431.74,298.17 439.02,291.02C445.73,284.52 446.8,273.31 441.74,265.52C437.37,258.2 427.61,255.28 419.68,257.85M697.33,258.93C694.59,260.56 693.12,263.45 691.8,266.21C693.55,266.91 695.32,267.62 697.07,268.36C698.41,266.31 699.62,263.74 702.24,263.11C705.26,261.83 709.22,263.74 709.95,266.99C710.9,270.3 709.2,273.62 707.19,276.16C702.11,282.59 697.07,289.07 691.93,295.45C700.15,295.6 708.38,295.49 716.6,295.52C716.59,293.56 716.59,291.6 716.6,289.64C712.47,289.64 708.35,289.66 704.23,289.58C707.41,285.29 710.9,281.23 713.94,276.84C717,272.45 717.6,266.12 714.38,261.64C710.67,256.34 702.59,255.61 697.33,258.93M723.9,265.06C722.51,268.87 724.61,272.6 727.21,275.28C723.59,278.33 721.15,283.18 722.94,287.91C725.17,295.66 735.18,298.1 741.87,294.8C747.13,292.52 749.85,285.82 747.72,280.51C746.88,278.36 744.99,276.92 743.38,275.37C744.96,273.57 746.71,271.73 747.26,269.31C747.83,266.58 746.82,263.76 745.31,261.51C740.06,254.2 726,255.77 723.9,265.06M861.63,257.53C856.78,270.19 851.78,282.8 846.95,295.46C849.03,295.5 851.12,295.52 853.22,295.54C854.37,292.53 855.51,289.52 856.68,286.52C862.13,286.53 867.6,286.49 873.06,286.56C874.17,289.57 875.35,292.56 876.54,295.54C878.62,295.52 880.71,295.51 882.81,295.48C877.89,282.85 872.95,270.24 868.12,257.59C865.95,257.56 863.78,257.55 861.63,257.53M40.9,257.55L40.9,263.59L51.5,263.59C51.56,274.23 51.51,284.88 51.53,295.52L57.81,295.52C57.82,284.88 57.8,274.24 57.82,263.61C61.33,263.59 64.84,263.59 68.35,263.57L68.35,257.57C59.2,257.54 50.05,257.56 40.9,257.55M73.47,282.89C73.48,286.44 75.02,289.93 77.58,292.37C83.04,297.42 92.21,297.45 97.92,292.81C101.29,289.94 102.67,285.39 102.62,281.08C102.64,273.24 102.6,265.39 102.62,257.55L96.38,257.55C96.35,265.38 96.43,273.2 96.37,281.03C96.35,284.2 95.2,287.89 92.11,289.33C88.89,291.08 84.6,290.56 81.98,287.97C79.97,285.86 79.58,282.79 79.64,280C79.67,272.52 79.67,265.03 79.66,257.55L73.46,257.55C73.49,266 73.41,274.45 73.47,282.89M222.46,295.52L228.79,295.52C228.82,286.72 228.76,277.92 228.83,269.11C235.27,277.87 241.65,286.68 248.01,295.49C249.89,295.51 251.77,295.52 253.65,295.54C253.66,282.87 253.66,270.21 253.65,257.55L247.42,257.55C247.41,266.4 247.42,275.25 247.41,284.1C240.98,275.25 234.55,266.4 228.13,257.55L222.46,257.55L222.46,295.52M287.67,295.54C289.78,295.52 291.9,295.5 294.03,295.45C295.1,292.44 296.26,289.47 297.46,286.5C302.9,286.54 308.35,286.51 313.8,286.53C314.92,289.49 316.06,292.44 317.08,295.44C319.23,295.49 321.38,295.52 323.53,295.54C318.67,282.87 313.67,270.27 308.85,257.59C306.71,257.56 304.58,257.54 302.45,257.53C297.42,270.16 292.53,282.84 287.67,295.54M328.19,257.56C328.2,270.21 328.19,282.87 328.2,295.52L334.52,295.52C334.53,290.77 334.51,286.03 334.53,281.28C335.68,281.33 336.83,281.39 337.99,281.45C340.85,286.19 343.85,290.84 346.77,295.55C349.18,295.52 351.59,295.51 354,295.46C350.93,290.64 347.84,285.84 344.75,281.05C347.58,279.63 350.72,278.1 351.98,274.97C355.01,269.19 352.52,261.04 346.24,258.67C340.46,256.64 334.19,257.88 328.19,257.56M360.69,257.54L360.69,295.53C362.83,295.52 364.98,295.51 367.12,295.49C367.24,282.85 367.14,270.22 367.18,257.59C365.01,257.56 362.85,257.55 360.69,257.54M374.69,257.58L374.69,263.55C380.76,263.64 386.83,263.55 392.91,263.63C386.32,274.27 379.66,284.87 373.03,295.49C382.87,295.56 392.71,295.51 402.55,295.52L402.55,289.64C396.34,289.61 390.13,289.68 383.93,289.6C390.15,278.73 397.04,268.25 403.6,257.58C393.96,257.54 384.33,257.53 374.69,257.58M451.24,257.54C451.23,270.2 451.23,282.86 451.24,295.52L457.39,295.52C457.4,286.74 457.37,277.95 457.41,269.17C463.79,277.97 470.23,286.72 476.59,295.54C478.52,295.52 480.47,295.51 482.42,295.49C482.42,282.85 482.41,270.21 482.42,257.57C480.28,257.56 478.15,257.55 476.02,257.54C475.96,266.42 476.14,275.29 475.89,284.17C469.61,275.23 463.04,266.49 456.72,257.58C454.89,257.56 453.06,257.55 451.24,257.54M487.02,295.47C489.11,295.5 491.2,295.52 493.29,295.54C494.44,292.53 495.61,289.53 496.78,286.53C502.23,286.52 507.69,286.51 513.15,286.55C514.25,289.56 515.4,292.56 516.57,295.55C518.67,295.53 520.78,295.51 522.89,295.47C517.96,282.85 513.03,270.22 508.18,257.57C506.02,257.55 503.86,257.55 501.72,257.55C496.82,270.19 491.87,282.81 487.02,295.47M586.71,257.59C586.72,270.22 586.72,282.85 586.71,295.48C588.86,295.5 591.02,295.52 593.19,295.53L593.19,279.2C598.25,279.19 603.31,279.2 608.38,279.19C608.38,277.21 608.38,275.22 608.4,273.25C603.35,273.18 598.3,273.2 593.25,273.21C593.18,270 593.18,266.79 593.22,263.59C598.59,263.6 603.96,263.59 609.33,263.59C609.32,261.58 609.33,259.56 609.33,257.55C601.79,257.57 594.25,257.52 586.71,257.59M615.67,257.55C615.67,270.21 615.66,282.86 615.67,295.52L638.77,295.52C638.76,293.55 638.77,291.59 638.77,289.63C633.11,289.62 627.45,289.7 621.79,289.55C621.8,286.08 621.8,282.61 621.78,279.15C626.89,278.91 632.01,279.01 637.13,279C637.13,277.07 637.13,275.13 637.14,273.2C632.18,273.2 627.23,273.19 622.28,273.21C622.2,270 622.19,266.79 622.23,263.59C627.68,263.6 633.13,263.6 638.58,263.59C638.57,261.57 638.57,259.56 638.58,257.55L615.67,257.55M645.31,257.55L645.31,295.52C650.62,295.43 655.94,295.74 661.25,295.38C667.24,294.87 672.68,289.18 671.57,282.96C671.57,279.52 668.64,277.3 666.21,275.36C671.35,271.27 670.67,262.28 664.78,259.26C658.72,256.36 651.78,257.94 645.31,257.55M805.47,295.52L811.67,295.52C811.68,286.9 811.64,278.28 811.7,269.66C815.62,275.34 819.45,281.1 823.11,286.96C823.55,286.87 824.43,286.69 824.86,286.6C828.36,280.87 832.17,275.36 835.82,269.74C835.95,278.34 835.82,286.94 835.91,295.55C838.04,295.52 840.18,295.5 842.33,295.47C842.32,282.84 842.32,270.2 842.32,257.56C840.31,257.56 838.31,257.56 836.31,257.58C832.75,263.29 829.08,268.92 825.4,274.55C825.03,275.45 823.32,276.7 822.79,275.26C818.86,269.42 815.16,263.41 811.26,257.54C809.32,257.54 807.39,257.55 805.47,257.56L805.47,295.52M887.41,295.52L893.75,295.52L893.75,281.34L897.13,281.34C900.05,286.07 903.08,290.73 905.96,295.49C908.4,295.52 910.85,295.51 913.31,295.5C910.23,290.67 907.09,285.88 904.05,281.03C906.56,279.72 909.42,278.47 910.79,275.8C914.22,270.19 912.32,261.72 906.11,258.93C900.19,256.51 893.62,257.92 887.41,257.56C887.4,270.21 887.4,282.87 887.41,295.52M931.24,287.16C937.89,287.21 944.55,287.17 951.2,287.18C951.19,289.96 951.19,292.74 951.21,295.52L957.56,295.52C957.55,292.74 957.55,289.96 957.56,287.19C958.63,287.18 960.77,287.18 961.84,287.18C961.83,285.27 961.83,283.36 961.84,281.46C960.4,281.45 958.98,281.45 957.56,281.45L957.56,257.56C955.21,257.55 952.86,257.55 950.53,257.53C944.04,267.37 937.69,277.3 931.24,287.16M551.74,268.89C548.46,269.65 545.51,272.49 545.39,275.97C544.88,279.95 548.18,283.63 551.99,284.29C556,284.92 560.15,281.75 560.69,277.75C561.67,272.84 556.62,267.83 551.74,268.89M769.12,279.21C769.15,281.23 769.18,283.25 769.24,285.27C773.95,285.29 778.67,285.3 783.38,285.16C783.38,283.18 783.39,281.21 783.41,279.24C778.65,279.19 773.88,279.19 769.12,279.21M263.63,290.42C262.04,294.65 260.56,298.92 259.14,303.21C260.76,303.72 262.38,304.25 264,304.77C265.5,300.66 267.03,296.58 268.62,292.51C266.95,291.82 265.29,291.13 263.63,290.42Z" style="fill:rgb(7,117,131);fill-rule:nonzero;"/>
        <rect x="28.974" y="249.251" width="954.252" height="62.202" style="fill:rgb(7,117,131);"/>
        <g transform="matrix(1,0,0,1,-17.0792,0.493664)">
            <g transform="matrix(0.791091,0,0,1,120.34,2.46832)">
                <path d="M71.25,254.188L71.25,260.305L58.185,260.305L58.185,288.734L49,288.734L49,260.305L35.876,260.305L35.876,254.188L71.25,254.188Z" style="fill:rgb(229,234,238);fill-rule:nonzero;"/>
                <path d="M92.137,285.125C92.058,285.203 91.861,285.438 91.545,285.828C91.229,286.219 90.853,286.563 90.419,286.859C89.095,287.797 87.817,288.438 86.582,288.781C85.348,289.125 83.901,289.297 82.242,289.297C77.462,289.297 74.242,287.938 72.583,285.219C71.655,283.719 71.191,281.508 71.191,278.586L71.191,263.188L79.842,263.188L79.842,278.586C79.842,280.039 80.059,281.133 80.494,281.867C81.264,283.164 82.775,283.813 85.027,283.813C87.91,283.813 89.885,282.891 90.952,281.047C91.505,280.047 91.782,278.727 91.782,277.086L91.782,263.188L100.344,263.188L100.344,288.734L92.137,288.734L92.137,285.125Z" style="fill:rgb(229,234,238);fill-rule:nonzero;"/>
                <path d="M136.429,272.352L127.778,272.352C127.62,271.399 127.215,270.539 126.563,269.774C125.615,268.742 124.144,268.227 122.149,268.227C119.305,268.227 117.359,269.344 116.313,271.578C115.76,272.766 115.483,274.344 115.483,276.313C115.483,278.188 115.76,279.695 116.313,280.836C117.32,282.961 119.216,284.024 122.001,284.024C123.976,284.024 125.378,283.602 126.208,282.758C127.037,281.914 127.541,280.82 127.719,279.477L136.34,279.477C136.143,281.508 135.214,283.43 133.555,285.242C130.909,288.164 126.988,289.625 121.794,289.625C116.599,289.625 112.777,288.406 110.328,285.969C107.879,283.531 106.654,280.367 106.654,276.477C106.654,272.086 108.007,268.672 110.713,266.234C113.419,263.797 117.152,262.578 121.912,262.578C125.961,262.578 129.274,263.297 131.852,264.734C134.429,266.172 135.955,268.711 136.429,272.352Z" style="fill:rgb(229,234,238);fill-rule:nonzero;"/>
                <path d="M164.486,264.359C167.014,265.641 168.466,267.844 168.841,270.969L160.397,270.969C160.279,270.109 159.973,269.43 159.479,268.93C158.551,268.024 156.97,267.57 154.739,267.57C152.902,267.57 151.593,267.797 150.813,268.25C150.033,268.703 149.643,269.234 149.643,269.844C149.643,270.609 150.058,271.164 150.887,271.508C151.717,271.867 154.65,272.484 159.686,273.359C163.044,273.984 165.562,274.93 167.241,276.195C168.9,277.477 169.73,279.078 169.73,281C169.73,283.531 168.54,285.598 166.16,287.199C163.78,288.801 160.101,289.602 155.124,289.602C150.048,289.602 146.3,288.754 143.88,287.059C141.461,285.363 140.251,283.203 140.251,280.578L148.813,280.578C148.991,281.766 149.376,282.609 149.969,283.109C151.015,284 152.951,284.445 155.775,284.445C157.435,284.445 158.753,284.25 159.731,283.859C160.708,283.469 161.197,282.883 161.197,282.102C161.197,281.352 160.802,280.781 160.012,280.391C159.222,280 156.289,279.328 151.213,278.375C147.559,277.656 144.981,276.758 143.48,275.68C141.979,274.617 141.229,273.086 141.229,271.086C141.229,268.727 142.399,266.699 144.74,265.004C147.08,263.309 150.374,262.461 154.62,262.461C158.649,262.461 161.938,263.094 164.486,264.359Z" style="fill:rgb(229,234,238);fill-rule:nonzero;"/>
                <path d="M202.912,266.422C205.637,269.125 207,272.32 207,276.008C207,279.758 205.637,282.965 202.912,285.629C200.186,288.293 196.048,289.625 190.498,289.625C184.948,289.625 180.81,288.293 178.084,285.629C175.359,282.965 173.996,279.758 173.996,276.008C173.996,272.32 175.359,269.125 178.084,266.422C180.81,263.719 184.948,262.367 190.498,262.367C196.048,262.367 200.186,263.719 202.912,266.422ZM190.469,268.016C188,268.016 186.099,268.707 184.765,270.09C183.432,271.473 182.766,273.445 182.766,276.008C182.766,278.57 183.432,280.547 184.765,281.938C186.099,283.328 188,284.024 190.469,284.024C192.937,284.024 194.834,283.328 196.157,281.938C197.48,280.547 198.142,278.57 198.142,276.008C198.142,273.445 197.48,271.473 196.157,270.09C194.834,268.707 192.937,268.016 190.469,268.016Z" style="fill:rgb(229,234,238);fill-rule:nonzero;"/>
                <path d="M228.243,268.133C225.379,268.133 223.414,269.094 222.347,271.016C221.794,272.031 221.517,273.328 221.517,274.906L221.517,288.734L213.103,288.734L213.103,263.234L221.251,263.234L221.251,266.961C222.337,265.649 223.364,264.703 224.332,264.125C226.07,263.094 228.272,262.578 230.939,262.578C234.277,262.578 237.007,263.27 239.131,264.652C241.254,266.035 242.315,268.328 242.315,271.531L242.315,288.734L233.664,288.734L233.664,273.195C233.664,271.852 233.437,270.82 232.983,270.102C232.153,268.789 230.573,268.133 228.243,268.133Z" style="fill:rgb(229,234,238);fill-rule:nonzero;"/>
                <path d="M258.255,291.125C257.899,292.281 257.237,293.281 256.27,294.125C255.223,295.031 253.993,295.715 252.581,296.176C251.169,296.637 250.196,296.867 249.663,296.867L249.663,294.289C251.361,293.914 252.611,293.289 253.411,292.414C254.211,291.539 254.67,290.313 254.788,288.734L249.663,288.734L249.663,281.75L258.788,281.75L258.788,287.797C258.788,288.859 258.61,289.969 258.255,291.125Z" style="fill:rgb(229,234,238);fill-rule:nonzero;"/>
                <path d="M308.99,281.633L292.903,281.633L289.881,288.734L280.341,288.734L295.925,254.188L306.235,254.188L321.7,288.734L311.805,288.734L308.99,281.633ZM306.442,275.68L300.991,262.086L295.362,275.68L306.442,275.68Z" style="fill:rgb(229,234,238);fill-rule:nonzero;"/>
                <path d="M342.794,269.352C339.397,269.352 337.116,270.227 335.95,271.977C335.299,272.961 334.973,274.477 334.973,276.524L334.973,288.734L326.47,288.734L326.47,263.188L334.528,263.188L334.528,267.641C335.832,265.938 336.968,264.774 337.935,264.149C339.516,263.102 341.57,262.578 344.098,262.578C344.256,262.578 344.389,262.582 344.498,262.59C344.606,262.598 344.848,262.609 345.224,262.625L345.224,269.469C344.69,269.422 344.216,269.391 343.802,269.375C343.387,269.359 343.051,269.352 342.794,269.352Z" style="fill:rgb(229,234,238);fill-rule:nonzero;"/>
                <path d="M358.852,263.188L358.852,288.734L350.29,288.734L350.29,263.188L358.852,263.188ZM358.852,253.977L358.852,260.141L350.29,260.141L350.29,253.977L358.852,253.977Z" style="fill:rgb(229,234,238);fill-rule:nonzero;"/>
                <path d="M391.945,288.734L364.066,288.734L364.066,283.531L380.628,268.625L365.192,268.625L365.192,263.188L391.382,263.188L391.382,268.742L374.999,283.25L391.945,283.25L391.945,288.734Z" style="fill:rgb(229,234,238);fill-rule:nonzero;"/>
                <path d="M424.298,266.422C427.023,269.125 428.386,272.32 428.386,276.008C428.386,279.758 427.023,282.965 424.298,285.629C421.572,288.293 417.434,289.625 411.884,289.625C406.334,289.625 402.196,288.293 399.47,285.629C396.745,282.965 395.382,279.758 395.382,276.008C395.382,272.32 396.745,269.125 399.47,266.422C402.196,263.719 406.334,262.367 411.884,262.367C417.434,262.367 421.572,263.719 424.298,266.422ZM411.854,268.016C409.385,268.016 407.484,268.707 406.151,270.09C404.818,271.473 404.151,273.445 404.151,276.008C404.151,278.57 404.818,280.547 406.151,281.938C407.484,283.328 409.385,284.024 411.854,284.024C414.323,284.024 416.219,283.328 417.543,281.938C418.866,280.547 419.528,278.57 419.528,276.008C419.528,273.445 418.866,271.473 417.543,270.09C416.219,268.707 414.323,268.016 411.854,268.016Z" style="fill:rgb(229,234,238);fill-rule:nonzero;"/>
                <path d="M449.629,268.133C446.765,268.133 444.799,269.094 443.733,271.016C443.18,272.031 442.903,273.328 442.903,274.906L442.903,288.734L434.489,288.734L434.489,263.234L442.637,263.234L442.637,266.961C443.723,265.649 444.75,264.703 445.718,264.125C447.456,263.094 449.658,262.578 452.325,262.578C455.663,262.578 458.393,263.27 460.516,264.652C462.64,266.035 463.701,268.328 463.701,271.531L463.701,288.734L455.05,288.734L455.05,273.195C455.05,271.852 454.823,270.82 454.369,270.102C453.539,268.789 451.959,268.133 449.629,268.133Z" style="fill:rgb(229,234,238);fill-rule:nonzero;"/>
                <path d="M472.708,265.953C474.94,263.703 478.771,262.578 484.203,262.578C487.738,262.578 490.879,263.133 493.624,264.242C496.37,265.352 497.742,267.445 497.742,270.524L497.742,282.242C497.742,283.055 497.762,284.039 497.802,285.195C497.861,286.07 498.029,286.664 498.305,286.977C498.582,287.289 498.997,287.547 499.55,287.75L499.55,288.734L490.365,288.734C490.109,288.219 489.931,287.734 489.832,287.281C489.733,286.828 489.654,286.313 489.595,285.734C488.43,286.734 487.087,287.586 485.566,288.289C483.749,289.117 481.695,289.531 479.403,289.531C476.48,289.531 474.066,288.871 472.16,287.551C470.254,286.231 469.301,284.359 469.301,281.938C469.301,278.797 470.831,276.524 473.893,275.117C475.572,274.352 478.041,273.805 481.3,273.477L484.173,273.195C485.734,273.039 486.85,272.844 487.521,272.609C488.726,272.203 489.328,271.57 489.328,270.711C489.328,269.664 488.869,268.942 487.951,268.543C487.032,268.145 485.684,267.945 483.907,267.945C481.912,267.945 480.5,268.336 479.67,269.117C479.078,269.695 478.683,270.477 478.485,271.461L470.338,271.461C470.515,269.227 471.305,267.391 472.708,265.953ZM478.989,283.906C479.779,284.422 480.747,284.68 481.892,284.68C483.709,284.68 485.383,284.258 486.914,283.414C488.445,282.57 489.24,281.031 489.299,278.797L489.299,276.313C488.766,276.578 488.227,276.793 487.684,276.957C487.141,277.121 486.395,277.274 485.447,277.414L483.551,277.695C481.774,277.945 480.5,278.25 479.729,278.609C478.426,279.219 477.774,280.164 477.774,281.445C477.774,282.586 478.179,283.406 478.989,283.906Z" style="fill:rgb(229,234,238);fill-rule:nonzero;"/>
                <path d="M561.601,288.734L553.098,288.734L553.098,254.188L566.371,254.188L574.311,281.352L582.192,254.188L595.317,254.188L595.317,288.734L586.814,288.734L586.814,265.367C586.814,264.695 586.824,263.754 586.843,262.543C586.863,261.332 586.873,260.399 586.873,259.742L578.607,288.734L569.749,288.734L561.542,259.742C561.542,260.399 561.552,261.332 561.572,262.543C561.591,263.754 561.601,264.695 561.601,265.367L561.601,288.734Z" style="fill:rgb(229,234,238);fill-rule:nonzero;"/>
                <path d="M604.323,265.953C606.555,263.703 610.387,262.578 615.818,262.578C619.354,262.578 622.494,263.133 625.24,264.242C627.985,265.352 629.358,267.445 629.358,270.524L629.358,282.242C629.358,283.055 629.378,284.039 629.417,285.195C629.476,286.07 629.644,286.664 629.921,286.977C630.197,287.289 630.612,287.547 631.165,287.75L631.165,288.734L621.981,288.734C621.724,288.219 621.546,287.734 621.447,287.281C621.349,286.828 621.27,286.313 621.21,285.734C620.045,286.734 618.702,287.586 617.181,288.289C615.364,289.117 613.31,289.531 611.019,289.531C608.096,289.531 605.681,288.871 603.775,287.551C601.869,286.231 600.916,284.359 600.916,281.938C600.916,278.797 602.447,276.524 605.508,275.117C607.187,274.352 609.656,273.805 612.915,273.477L615.789,273.195C617.349,273.039 618.465,272.844 619.137,272.609C620.341,272.203 620.944,271.57 620.944,270.711C620.944,269.664 620.485,268.942 619.566,268.543C618.648,268.145 617.3,267.945 615.522,267.945C613.527,267.945 612.115,268.336 611.285,269.117C610.693,269.695 610.298,270.477 610.1,271.461L601.953,271.461C602.131,269.227 602.921,267.391 604.323,265.953ZM610.604,283.906C611.394,284.422 612.362,284.68 613.508,284.68C615.325,284.68 616.999,284.258 618.529,283.414C620.06,282.57 620.855,281.031 620.914,278.797L620.914,276.313C620.381,276.578 619.843,276.793 619.3,276.957C618.756,277.121 618.011,277.274 617.063,277.414L615.167,277.695C613.389,277.945 612.115,278.25 611.345,278.609C610.041,279.219 609.389,280.164 609.389,281.445C609.389,282.586 609.794,283.406 610.604,283.906Z" style="fill:rgb(229,234,238);fill-rule:nonzero;"/>
                <path d="M653.089,269.352C649.692,269.352 647.41,270.227 646.245,271.977C645.593,272.961 645.267,274.477 645.267,276.524L645.267,288.734L636.765,288.734L636.765,263.188L644.823,263.188L644.823,267.641C646.127,265.938 647.262,264.774 648.23,264.149C649.81,263.102 651.864,262.578 654.393,262.578C654.551,262.578 654.684,262.582 654.792,262.59C654.901,262.598 655.143,262.609 655.518,262.625L655.518,269.469C654.985,269.422 654.511,269.391 654.096,269.375C653.681,269.359 653.346,269.352 653.089,269.352Z" style="fill:rgb(229,234,238);fill-rule:nonzero;"/>
                <path d="M690.848,266.68C694.66,266.68 697.785,267.703 700.225,269.75C702.664,271.797 703.884,274.414 703.884,277.602C703.884,280.774 702.689,283.57 700.299,285.992C697.909,288.414 694.196,289.625 689.159,289.625C683.747,289.625 679.757,287.836 677.19,284.258C675.195,281.461 674.197,277.852 674.197,273.43C674.197,270.836 674.336,268.727 674.612,267.102C675.106,264.211 676.064,261.805 677.486,259.883C678.711,258.242 680.315,256.922 682.3,255.922C684.285,254.922 686.66,254.422 689.426,254.422C693.415,254.422 696.595,255.231 698.965,256.848C701.336,258.465 702.669,260.617 702.965,263.305L694.551,263.305C694.551,262.758 694.284,262.156 693.751,261.5C692.843,260.438 691.47,259.906 689.633,259.906C686.888,259.906 684.932,261.125 683.767,263.563C683.135,264.906 682.7,266.891 682.463,269.516C683.51,268.531 684.725,267.813 686.107,267.359C687.49,266.906 689.07,266.68 690.848,266.68ZM685.159,273.055C683.5,274.07 682.671,275.711 682.671,277.977C682.671,279.805 683.293,281.297 684.537,282.453C685.782,283.609 687.362,284.188 689.278,284.188C691.154,284.188 692.63,283.629 693.707,282.512C694.783,281.395 695.321,279.945 695.321,278.164C695.321,276.18 694.709,274.66 693.485,273.606C692.26,272.551 690.759,272.024 688.981,272.024C687.539,272.024 686.265,272.367 685.159,273.055Z" style="fill:rgb(229,234,238);fill-rule:nonzero;"/>
                <rect x="723.214" y="272.188" width="17.006" height="6.328" style="fill:rgb(229,234,238);fill-rule:nonzero;"/>
                <path d="M780.764,288.734L772.113,288.734L772.113,265.297L762.01,265.297L762.01,260.75C764.677,260.656 766.543,260.516 767.61,260.328C769.308,260.031 770.691,259.438 771.757,258.547C772.488,257.938 773.041,257.125 773.416,256.109C773.634,255.5 773.742,255.047 773.742,254.75L780.764,254.75L780.764,288.734Z" style="fill:rgb(229,234,238);fill-rule:nonzero;"/>
                <path d="M808.258,289.578C802.787,289.578 798.95,288.063 796.748,285.031C794.545,282 793.444,277.68 793.444,272.07C793.444,266.461 794.545,262.133 796.748,259.086C798.95,256.039 802.787,254.516 808.258,254.516C813.729,254.516 817.57,256.039 819.782,259.086C821.975,262.133 823.071,266.461 823.071,272.07C823.071,277.68 821.97,282 819.768,285.031C817.565,288.063 813.729,289.578 808.258,289.578ZM813.205,281.024C813.976,278.961 814.361,275.977 814.361,272.07C814.361,267.977 813.971,264.945 813.19,262.977C812.41,261.008 810.766,260.024 808.258,260.024C805.749,260.024 804.09,261.008 803.28,262.977C802.471,264.945 802.066,267.977 802.066,272.07C802.066,275.977 802.471,278.965 803.28,281.035C804.09,283.106 805.749,284.141 808.258,284.141C810.766,284.141 812.415,283.102 813.205,281.024Z" style="fill:rgb(229,234,238);fill-rule:nonzero;"/>
                <path d="M837.381,291.125C837.025,292.281 836.364,293.281 835.396,294.125C834.349,295.031 833.119,295.715 831.707,296.176C830.295,296.637 829.322,296.867 828.789,296.867L828.789,294.289C830.488,293.914 831.737,293.289 832.537,292.414C833.337,291.539 833.796,290.313 833.914,288.734L828.789,288.734L828.789,281.75L837.914,281.75L837.914,287.797C837.914,288.859 837.736,289.969 837.381,291.125Z" style="fill:rgb(229,234,238);fill-rule:nonzero;"/>
                <path d="M879.021,261.664C878.013,260.711 876.572,260.234 874.695,260.234C872.128,260.234 870.38,260.992 869.451,262.508C868.918,263.383 868.602,264.774 868.503,266.68L860.297,266.68C860.435,263.789 861.096,261.453 862.282,259.672C864.533,256.281 868.533,254.586 874.28,254.586C878.823,254.586 882.438,255.582 885.124,257.574C887.81,259.567 889.153,262.203 889.153,265.484C889.153,268 888.205,270.234 886.309,272.188C885.065,273.484 883.02,274.93 880.176,276.524L876.799,278.422C874.685,279.609 873.239,280.469 872.458,281C871.678,281.531 871.021,282.149 870.488,282.852L889.242,282.852L889.242,288.734L859.823,288.734C859.902,286.297 860.563,284.07 861.808,282.055C863.012,279.789 865.857,277.391 870.34,274.859C874.231,272.656 876.749,271.078 877.895,270.125C879.653,268.641 880.532,267.016 880.532,265.25C880.532,263.813 880.028,262.617 879.021,261.664Z" style="fill:rgb(229,234,238);fill-rule:nonzero;"/>
                <path d="M908.381,289.578C902.91,289.578 899.073,288.063 896.871,285.031C894.669,282 893.567,277.68 893.567,272.07C893.567,266.461 894.669,262.133 896.871,259.086C899.073,256.039 902.91,254.516 908.381,254.516C913.852,254.516 917.694,256.039 919.906,259.086C922.098,262.133 923.194,266.461 923.194,272.07C923.194,277.68 922.093,282 919.891,285.031C917.689,288.063 913.852,289.578 908.381,289.578ZM913.329,281.024C914.099,278.961 914.484,275.977 914.484,272.07C914.484,267.977 914.094,264.945 913.314,262.977C912.534,261.008 910.889,260.024 908.381,260.024C905.872,260.024 904.213,261.008 903.404,262.977C902.594,264.945 902.189,267.977 902.189,272.07C902.189,275.977 902.594,278.965 903.404,281.035C904.213,283.106 905.872,284.141 908.381,284.141C910.889,284.141 912.539,283.102 913.329,281.024Z" style="fill:rgb(229,234,238);fill-rule:nonzero;"/>
                <path d="M946.511,261.664C945.503,260.711 944.061,260.234 942.185,260.234C939.617,260.234 937.869,260.992 936.941,262.508C936.408,263.383 936.092,264.774 935.993,266.68L927.786,266.68C927.925,263.789 928.586,261.453 929.771,259.672C932.023,256.281 936.023,254.586 941.77,254.586C946.313,254.586 949.928,255.582 952.614,257.574C955.3,259.567 956.643,262.203 956.643,265.484C956.643,268 955.695,270.234 953.799,272.188C952.554,273.484 950.51,274.93 947.666,276.524L944.289,278.422C942.175,279.609 940.728,280.469 939.948,281C939.168,281.531 938.511,282.149 937.978,282.852L956.732,282.852L956.732,288.734L927.312,288.734C927.391,286.297 928.053,284.07 929.297,282.055C930.502,279.789 933.346,277.391 937.83,274.859C941.721,272.656 944.239,271.078 945.385,270.125C947.143,268.641 948.022,267.016 948.022,265.25C948.022,263.813 947.518,262.617 946.511,261.664Z" style="fill:rgb(229,234,238);fill-rule:nonzero;"/>
                <path d="M977.708,266.68C981.52,266.68 984.645,267.703 987.085,269.75C989.524,271.797 990.743,274.414 990.743,277.602C990.743,280.774 989.548,283.57 987.159,285.992C984.769,288.414 981.055,289.625 976.019,289.625C970.607,289.625 966.617,287.836 964.05,284.258C962.055,281.461 961.057,277.852 961.057,273.43C961.057,270.836 961.196,268.727 961.472,267.102C961.966,264.211 962.924,261.805 964.346,259.883C965.571,258.242 967.175,256.922 969.16,255.922C971.145,254.922 973.52,254.422 976.286,254.422C980.275,254.422 983.455,255.231 985.825,256.848C988.196,258.465 989.529,260.617 989.825,263.305L981.411,263.305C981.411,262.758 981.144,262.156 980.611,261.5C979.703,260.438 978.33,259.906 976.493,259.906C973.748,259.906 971.792,261.125 970.627,263.563C969.995,264.906 969.56,266.891 969.323,269.516C970.37,268.531 971.585,267.813 972.967,267.359C974.35,266.906 975.93,266.68 977.708,266.68ZM972.019,273.055C970.36,274.07 969.531,275.711 969.531,277.977C969.531,279.805 970.153,281.297 971.397,282.453C972.641,283.609 974.222,284.188 976.137,284.188C978.014,284.188 979.49,283.629 980.567,282.512C981.643,281.395 982.181,279.945 982.181,278.164C982.181,276.18 981.569,274.66 980.344,273.606C979.12,272.551 977.619,272.024 975.841,272.024C974.399,272.024 973.125,272.367 972.019,273.055Z" style="fill:rgb(229,234,238);fill-rule:nonzero;"/>
            </g>
            <g transform="matrix(1,0,0,1,-24.1895,-5.92397)">
                <ellipse cx="558.675" cy="282.679" rx="7.899" ry="6.911" style="fill:rgb(229,234,238);"/>
            </g>
        </g>
        <path d="M796.53,11.11C801.28,10.13 806.18,10.15 811,10.48C817.44,10.91 823.37,13.66 829.37,15.8C873.54,32.12 917.72,48.41 961.9,64.73C965.46,66.21 969.5,66.92 972.58,69.37C976.83,73.15 973.81,81.3 968.01,81.04C963.49,80.62 959.43,78.28 955.15,76.91C909.34,59.99 863.52,43.09 817.71,26.16C811.2,23.58 803.83,23.54 797.09,25.13C739.3,42.4 681.51,59.65 623.71,76.89C619.21,78.89 613.8,74.77 614.4,69.92C614.48,66.6 617.3,64.19 620.37,63.53C662.94,50.83 705.52,38.14 748.09,25.39C764.26,20.72 780.3,15.57 796.53,11.11Z" style="fill:rgb(7,117,131);fill-rule:nonzero;"/>
        <path d="M437.42,27.6C444.96,25.96 452.94,27.65 459.6,31.42C469.14,36.6 478.91,41.34 488.4,46.6C492.16,48.52 492.79,54.04 490.03,57.05C487.95,59.39 484.3,60.08 481.58,58.45C471.85,53.47 462.19,48.35 452.52,43.26C448.14,40.77 442.82,39.92 438.01,41.65C387.08,57.31 336.16,72.99 285.24,88.7C282.38,89.49 279.26,90.97 276.33,89.61C272.54,88.11 271.05,82.77 273.48,79.51C274.76,77.47 277.17,76.77 279.32,76.06C322.81,62.76 366.26,49.32 409.72,35.95C418.97,33.23 428.09,30.04 437.42,27.6Z" style="fill:rgb(7,117,131);fill-rule:nonzero;"/>
    </g>
    <g id="_-0f75bcff" serif:id="#0f75bcff">
        <path d="M307.93,119.92C320.07,108.27 337.68,103.76 354.15,105.76C366.35,107.89 378.19,113.42 386.61,122.67C382.25,126.72 378.14,131.01 373.84,135.11C366.56,127.76 356.49,122.81 345.99,123.24C335.34,122.78 324.85,128.06 318.33,136.38C307.05,150.42 306.73,171.99 317.38,186.47C322.21,193.31 329.65,198.21 337.79,200.14C345.81,201.67 354.38,201.1 361.83,197.6C367.11,195.34 371.58,191.63 375.64,187.64C379.68,191.9 384.06,195.82 388.14,200.04C377.49,212.24 361.16,219.3 344.97,218.6C342.23,218.58 339.5,218.41 336.77,218.28L336.13,217.9C319.89,215.46 305.12,205.03 297.38,190.56C285.13,168.14 288.85,137.43 307.93,119.92Z" style="fill:rgb(15,117,188);fill-rule:nonzero;"/>
        <path d="M729.18,111.24C736.98,105.75 746.84,104.67 756.09,105.71C767.12,107.8 776.6,115.22 781.9,125.02C790.17,140.19 791.68,158.25 789.51,175.14C787.67,188.94 782.27,203.24 770.86,211.92C762.36,218.51 750.89,219.87 740.59,217.81C730.36,215.52 721.82,208.25 716.77,199.21C708.36,184.4 707.1,166.73 708.73,150.09C710.73,135.4 716.46,119.9 729.18,111.24M742.6,124.47C735.37,127.77 731.36,135.39 729.4,142.74C726,155.88 726.06,169.99 729.9,183.04C732.16,190.17 736.41,197.71 743.96,200.15C748.95,201.43 754.74,201.2 758.99,197.99C765.41,193.32 768.36,185.43 769.98,177.95C772.17,165.79 772.13,153.05 768.7,141.14C766.49,133.8 761.99,126.12 754.24,123.74C750.41,123.02 746.22,122.84 742.6,124.47Z" style="fill:rgb(15,117,188);fill-rule:nonzero;"/>
        <path d="M650.92,105.73C659.56,104.95 668.67,105.25 676.45,109.52C685.11,113.85 690.85,122.72 692.46,132.13C695.03,144.45 690.7,157.37 683.12,167.13C674.89,177.65 666.82,188.29 658.55,198.78C670.23,198.87 681.9,198.8 693.58,198.82C693.57,204.82 693.58,210.82 693.57,216.82C669.47,216.82 645.36,216.81 621.25,216.82C634.35,200.06 647.56,183.4 660.72,166.69C665.96,160.19 671.85,153.63 673.57,145.18C675.43,138.05 673.08,129.39 666.56,125.42C662.58,122.76 657.49,122.97 652.96,123.66C645.56,125.35 640.55,132.01 638.46,138.99C632.78,137.06 627.19,134.9 621.53,132.92C624.47,123.63 630.47,115.1 638.99,110.17C642.66,107.96 646.82,106.83 650.92,105.73Z" style="fill:rgb(15,117,188);fill-rule:nonzero;"/>
        <path d="M825.8,107.63C831.61,105.37 837.94,105.13 844.1,105.57C854.72,106.35 865.2,112.18 870.22,121.78C877.63,135.63 874.85,153.25 865.62,165.55C857.14,176.69 848.5,187.71 839.94,198.79C851.57,198.86 863.2,198.8 874.83,198.82C874.83,204.82 874.83,210.82 874.84,216.82C850.74,216.8 826.65,216.86 802.56,216.79C816,199.82 829.34,182.78 842.77,165.81C847.76,159.77 853.01,153.5 854.86,145.69C856.77,138.77 854.89,130.47 848.9,126.11C844.66,122.74 838.82,122.81 833.77,123.79C826.68,125.72 821.88,132.14 819.83,138.91C814.15,137.16 808.65,134.89 803.02,132.99C806.2,121.68 814.6,111.63 825.8,107.63Z" style="fill:rgb(15,117,188);fill-rule:nonzero;"/>
        <path d="M38.65,107.22C45.83,107.17 53.01,107.15 60.19,107.23C67.74,129 75.56,150.68 83.07,172.46C91.64,150.81 99.6,128.92 107.94,107.19C113.24,107.21 118.54,107.03 123.83,107.39C131.47,129.25 139.91,150.85 147.84,172.61C155.75,150.81 163.59,128.98 171.53,107.2C178.1,107.19 184.67,107.13 191.24,107.24C176.93,145.1 162.49,182.92 148,220.72C136.92,193.48 126.32,166.03 115.07,138.86C104.23,166.24 92.94,193.44 81.98,220.77C67.39,182.98 53.06,145.08 38.65,107.22Z" style="fill:rgb(15,117,188);fill-rule:nonzero;"/>
        <path d="M181.24,216.78C195.47,180.27 209.66,143.75 223.8,107.21C230.24,107.17 236.69,107.15 243.13,107.23C257.22,143.77 271.4,180.29 285.68,216.76C279.29,216.86 272.89,216.82 266.5,216.8C263,208.15 259.83,199.36 256.33,190.71C241.08,190.73 225.82,190.74 210.57,190.71C207.05,199.36 203.91,208.17 200.36,216.82C193.99,216.8 187.62,216.86 181.24,216.78M217.24,173.42C228.06,173.49 238.87,173.47 249.68,173.43C244.22,159.49 238.96,145.48 233.51,131.54C227.84,145.4 222.74,159.49 217.24,173.42Z" style="fill:rgb(15,117,188);fill-rule:nonzero;"/>
        <path d="M390.85,107.17C397.75,107.33 404.66,106.89 411.54,107.38C421.51,130.51 430.72,154 440.69,177.15C449.93,153.78 459.83,130.68 469.08,107.31C475.71,107.06 482.35,107.21 488.99,107.2C472.76,145.15 456.23,182.96 439.95,220.89C423.62,182.97 407.17,145.1 390.85,107.17Z" style="fill:rgb(15,117,188);fill-rule:nonzero;"/>
        <g transform="matrix(1,0,0,1,-2.84217e-14,2)">
            <text x="890.076px" y="213.825px" style="font-family:'Helvetica-Bold', 'Helvetica';font-weight:700;font-size:150px;fill:rgb(15,117,188);">6</text>
        </g>
    </g>
</svg>
